<?xml version="1.0" standalone="no"?>
<!DOCTYPE svg PUBLIC "-//W3C//DTD SVG 20010904//EN"
 "http://www.w3.org/TR/2001/REC-SVG-20010904/DTD/svg10.dtd">
<svg version="1.0" xmlns="http://www.w3.org/2000/svg"
 width="470.000000pt" height="444.000000pt" viewBox="0 0 470.000000 444.000000"
 preserveAspectRatio="xMidYMid meet">
<metadata>
Created by potrace 1.16, written by Peter Selinger 2001-2019
</metadata>
<g transform="translate(0.000000,444.000000) scale(0.100000,-0.100000)"
fill="#000000" stroke="none">
<path d="M1895 3901 c-243 -44 -451 -126 -650 -255 -83 -54 -235 -178 -294
-239 l-34 -36 1064 -4 c1156 -4 1145 -4 1334 -62 304 -93 434 -329 435 -786 0
-322 -62 -541 -192 -671 -90 -90 -250 -157 -419 -175 -33 -3 -58 -10 -57 -14
3 -10 470 -419 478 -419 11 0 94 140 145 245 301 618 199 1353 -260 1868 -244
274 -561 458 -930 538 -144 31 -477 36 -620 10z"/>
<path d="M598 2863 c-98 -256 -139 -514 -118 -763 28 -344 129 -618 328 -890
112 -153 310 -335 467 -431 452 -274 974 -331 1470 -159 76 26 315 141 315
151 0 4 -15 20 -34 36 -40 34 -1049 927 -1121 992 -28 25 -102 91 -165 147
-181 159 -756 669 -850 754 -198 180 -255 230 -260 230 -3 0 -17 -30 -32 -67z"/>
<path d="M1550 2430 l0 -191 603 3 c590 3 603 3 647 24 83 39 120 94 120 176
0 65 -34 116 -99 150 l-53 28 -609 0 -609 0 0 -190z"/>
</g>
</svg>
